<?xml version="1.0" encoding="UTF-8"?>
<svg xmlns="http://www.w3.org/2000/svg" xmlns:xlink="http://www.w3.org/1999/xlink" width="31px" height="55px" viewBox="0 0 31 55" version="1.1">
<g id="surface1">
<path style=" stroke:none;fill-rule:nonzero;fill:rgb(0%,0%,0%);fill-opacity:1;" d="M 30.941406 16.335938 C 30.925781 16.335938 30.925781 16.320312 30.917969 16.320312 C 30.90625 16.320312 30.902344 16.335938 30.886719 16.347656 C 11.34375 19.722656 2.164062 34.3125 0 37.902344 L 0.289062 38.679688 L 3.703125 38.679688 C 12.578125 23.347656 24.570312 18.269531 30.914062 16.597656 L 30.917969 16.605469 C 30.921875 16.605469 30.925781 16.585938 30.933594 16.585938 C 30.972656 16.578125 31 16.527344 31 16.460938 C 31 16.398438 30.972656 16.347656 30.941406 16.335938 Z M 0.488281 24.195312 L 0.28125 24.859375 L 4.476562 30.113281 C 5.324219 29.253906 6.191406 28.46875 7.074219 27.730469 L 4.265625 24.195312 Z M 9.808594 31.152344 C 9.109375 32.039062 8.40625 32.976562 7.644531 34.078125 L 11.328125 38.679688 L 15.148438 38.679688 L 15.308594 38.074219 Z M 9.808594 31.152344 "/>
</g>
</svg>
