<?xml version="1.0" encoding="UTF-8"?>
<svg xmlns="http://www.w3.org/2000/svg" xmlns:xlink="http://www.w3.org/1999/xlink" width="55px" height="55px" viewBox="0 0 55 55" version="1.1">
<g id="surface1">
<path style=" stroke:none;fill-rule:nonzero;fill:rgb(0%,0%,0%);fill-opacity:1;" d="M 54.894531 15.960938 C 54.871094 15.960938 54.867188 15.949219 54.855469 15.949219 C 54.835938 15.949219 54.824219 15.960938 54.800781 15.976562 C 20.128906 19.464844 3.839844 34.539062 0 38.246094 L 0.511719 39.050781 L 6.570312 39.050781 C 22.316406 23.210938 43.589844 17.960938 54.847656 16.234375 L 54.855469 16.242188 C 54.863281 16.242188 54.871094 16.21875 54.878906 16.21875 C 54.949219 16.214844 55 16.160156 55 16.089844 C 55 16.027344 54.953125 15.980469 54.894531 15.960938 Z M 0.867188 24.082031 L 0.5 24.769531 L 7.941406 30.199219 C 9.445312 29.3125 10.984375 28.503906 12.550781 27.738281 L 7.566406 24.082031 Z M 17.402344 31.277344 C 16.164062 32.1875 14.914062 33.15625 13.5625 34.292969 L 20.101562 39.050781 L 26.878906 39.050781 L 27.160156 38.429688 Z M 17.402344 31.277344 "/>
</g>
</svg>
