<?xml version="1.0" encoding="UTF-8"?>
<svg xmlns="http://www.w3.org/2000/svg" xmlns:xlink="http://www.w3.org/1999/xlink" width="25px" height="25px" viewBox="0 0 25 25" version="1.1">
<g id="surface1">
<path style=" stroke:none;fill-rule:nonzero;fill:rgb(0%,0%,0%);fill-opacity:1;" d="M 24.925781 20.414062 L 23.015625 18.5 C 22.96875 18.453125 22.902344 18.425781 22.835938 18.425781 C 22.769531 18.425781 22.707031 18.453125 22.660156 18.5 L 21.714844 19.445312 L 21.492188 19.226562 L 22.441406 18.277344 C 22.488281 18.230469 22.511719 18.167969 22.511719 18.101562 C 22.511719 18.035156 22.488281 17.972656 22.441406 17.925781 L 20.527344 16.011719 C 20.429688 15.914062 20.269531 15.914062 20.171875 16.011719 L 19.226562 16.960938 L 19.003906 16.738281 L 19.953125 15.792969 C 20.050781 15.695312 20.050781 15.535156 19.953125 15.4375 L 18.039062 13.523438 C 17.992188 13.476562 17.929688 13.453125 17.863281 13.453125 C 17.796875 13.453125 17.734375 13.476562 17.6875 13.523438 L 16.738281 14.472656 L 16.292969 14.027344 L 19.714844 10.605469 C 19.753906 10.566406 19.777344 10.515625 19.785156 10.460938 L 20.34375 6.59375 C 20.355469 6.515625 20.328125 6.4375 20.273438 6.382812 L 18.617188 4.726562 C 18.5625 4.671875 18.484375 4.644531 18.40625 4.65625 L 14.539062 5.214844 C 14.484375 5.222656 14.433594 5.246094 14.394531 5.285156 L 10.972656 8.707031 L 10.527344 8.261719 L 11.472656 7.3125 C 11.570312 7.214844 11.570312 7.058594 11.472656 6.960938 L 9.5625 5.046875 C 9.515625 5 9.449219 4.972656 9.382812 4.972656 C 9.320312 4.972656 9.253906 5 9.207031 5.046875 L 8.261719 5.996094 L 8.039062 5.773438 L 8.988281 4.828125 C 9.085938 4.730469 9.085938 4.570312 8.988281 4.472656 L 7.074219 2.558594 C 7.027344 2.511719 6.964844 2.488281 6.898438 2.488281 C 6.832031 2.488281 6.769531 2.511719 6.722656 2.558594 L 5.773438 3.507812 L 5.554688 3.285156 L 6.5 2.339844 C 6.546875 2.292969 6.574219 2.230469 6.574219 2.164062 C 6.574219 2.097656 6.546875 2.035156 6.5 1.988281 L 4.585938 0.0742188 C 4.488281 -0.0234375 4.332031 -0.0234375 4.234375 0.0742188 L 3.285156 1.019531 L 2.84375 0.574219 C 2.746094 0.476562 2.585938 0.476562 2.488281 0.574219 C 2.390625 0.671875 2.390625 0.832031 2.488281 0.929688 L 2.933594 1.375 L 1.375 2.933594 L 0.929688 2.488281 C 0.832031 2.390625 0.671875 2.390625 0.574219 2.488281 C 0.476562 2.585938 0.476562 2.746094 0.574219 2.839844 L 1.019531 3.285156 L 0.0742188 4.234375 C 0.0273438 4.28125 0 4.34375 0 4.410156 C 0 4.476562 0.0273438 4.539062 0.0742188 4.585938 L 1.984375 6.5 C 2.035156 6.550781 2.097656 6.574219 2.164062 6.574219 C 2.226562 6.574219 2.289062 6.550781 2.339844 6.5 L 3.285156 5.554688 L 3.507812 5.773438 L 2.558594 6.722656 C 2.460938 6.820312 2.460938 6.976562 2.558594 7.074219 L 4.472656 8.988281 C 4.523438 9.035156 4.585938 9.0625 4.648438 9.0625 C 4.714844 9.0625 4.777344 9.035156 4.828125 8.988281 L 5.773438 8.039062 L 5.996094 8.261719 L 5.046875 9.207031 C 4.949219 9.304688 4.949219 9.464844 5.046875 9.5625 L 6.960938 11.476562 C 7.007812 11.523438 7.070312 11.546875 7.136719 11.546875 C 7.203125 11.546875 7.265625 11.523438 7.3125 11.476562 L 8.261719 10.527344 L 8.707031 10.972656 L 7.761719 11.921875 C 7.664062 12.019531 7.664062 12.175781 7.761719 12.273438 L 8.890625 13.40625 L 7.042969 13.925781 C 6.957031 13.949219 6.890625 14.015625 6.871094 14.101562 C 6.847656 14.1875 6.871094 14.28125 6.933594 14.34375 L 10.65625 18.066406 C 10.703125 18.113281 10.769531 18.136719 10.835938 18.136719 C 10.855469 18.136719 10.875 18.136719 10.898438 18.128906 C 10.984375 18.109375 11.050781 18.042969 11.074219 17.957031 L 11.59375 16.109375 L 12.726562 17.238281 C 12.773438 17.285156 12.835938 17.3125 12.902344 17.3125 C 12.96875 17.3125 13.03125 17.285156 13.078125 17.238281 L 14.027344 16.292969 L 14.472656 16.738281 L 13.527344 17.6875 C 13.429688 17.785156 13.429688 17.941406 13.527344 18.039062 L 15.4375 19.953125 C 15.488281 20 15.550781 20.027344 15.617188 20.027344 C 15.679688 20.027344 15.742188 20 15.792969 19.953125 L 16.738281 19.003906 L 16.960938 19.226562 L 16.011719 20.171875 C 15.914062 20.269531 15.914062 20.429688 16.011719 20.527344 L 17.925781 22.441406 C 17.972656 22.488281 18.039062 22.511719 18.101562 22.511719 C 18.167969 22.511719 18.230469 22.488281 18.277344 22.441406 L 19.226562 21.492188 L 19.445312 21.710938 L 18.5 22.660156 C 18.402344 22.757812 18.402344 22.914062 18.5 23.011719 L 20.414062 24.925781 C 20.460938 24.972656 20.523438 25 20.589844 25 C 20.65625 25 20.71875 24.972656 20.765625 24.925781 L 21.714844 23.980469 L 22.160156 24.425781 C 22.207031 24.472656 22.269531 24.496094 22.335938 24.496094 C 22.398438 24.496094 22.464844 24.472656 22.511719 24.425781 C 22.609375 24.328125 22.609375 24.167969 22.511719 24.070312 L 22.066406 23.625 L 23.625 22.066406 L 24.070312 22.511719 C 24.121094 22.558594 24.183594 22.585938 24.25 22.585938 C 24.3125 22.585938 24.375 22.558594 24.425781 22.511719 C 24.523438 22.414062 24.523438 22.253906 24.425781 22.15625 L 23.980469 21.710938 L 24.925781 20.765625 C 25.023438 20.667969 25.023438 20.511719 24.925781 20.414062 Z M 13.609375 16.003906 L 12.484375 14.878906 L 15.425781 11.933594 C 15.742188 11.621094 15.917969 11.199219 15.917969 10.753906 C 15.917969 10.308594 15.742188 9.886719 15.425781 9.574219 C 15.113281 9.257812 14.691406 9.082031 14.246094 9.082031 C 13.800781 9.082031 13.378906 9.257812 13.066406 9.574219 L 10.121094 12.515625 L 8.996094 11.390625 L 13.855469 6.53125 L 18.46875 11.144531 Z M 10.488281 12.859375 L 13.417969 9.925781 C 13.640625 9.703125 13.933594 9.582031 14.246094 9.582031 C 14.558594 9.582031 14.851562 9.703125 15.074219 9.925781 C 15.296875 10.148438 15.417969 10.441406 15.417969 10.753906 C 15.417969 11.066406 15.296875 11.359375 15.074219 11.582031 L 12.140625 14.511719 Z M 19.183594 10.425781 L 18.820312 10.792969 L 14.207031 6.179688 L 14.574219 5.816406 Z M 19.832031 6.648438 L 19.363281 9.898438 L 15.101562 5.636719 L 18.351562 5.167969 Z M 2.164062 5.96875 L 0.601562 4.410156 L 4.410156 0.601562 L 5.96875 2.164062 Z M 3.640625 5.199219 L 5.199219 3.640625 L 5.421875 3.859375 L 3.859375 5.421875 Z M 4.648438 8.457031 L 3.089844 6.898438 L 6.898438 3.089844 L 8.457031 4.648438 Z M 6.128906 7.6875 L 7.6875 6.128906 L 7.90625 6.347656 L 6.347656 7.90625 Z M 7.136719 10.945312 L 5.578125 9.386719 L 9.386719 5.578125 L 10.945312 7.136719 Z M 8.613281 10.175781 L 10.175781 8.613281 L 10.621094 9.0625 L 9.0625 10.621094 Z M 10.710938 17.410156 L 7.589844 14.289062 L 9.296875 13.8125 L 11.1875 15.703125 Z M 12.902344 16.710938 L 8.289062 12.097656 L 8.640625 11.746094 L 13.253906 16.359375 Z M 14.378906 15.9375 L 15.9375 14.378906 L 16.386719 14.824219 L 14.824219 16.386719 Z M 15.613281 19.421875 L 14.054688 17.863281 L 17.863281 14.054688 L 19.421875 15.613281 Z M 17.09375 18.652344 L 18.652344 17.09375 L 18.871094 17.3125 L 17.3125 18.871094 Z M 18.101562 21.910156 L 16.542969 20.351562 L 20.351562 16.542969 L 21.910156 18.101562 Z M 19.578125 21.140625 L 21.140625 19.578125 L 21.359375 19.800781 L 19.800781 21.359375 Z M 20.589844 24.398438 L 19.03125 22.835938 L 22.835938 19.03125 L 24.398438 20.589844 Z M 20.589844 24.398438 "/>
</g>
</svg>
