<?xml version="1.0" encoding="UTF-8"?>
<svg xmlns="http://www.w3.org/2000/svg" xmlns:xlink="http://www.w3.org/1999/xlink" width="25px" height="25px" viewBox="0 0 25 25" version="1.1">
<g id="surface1">
<path style=" stroke:none;fill-rule:nonzero;fill:rgb(0%,0%,0%);fill-opacity:1;" d="M 16.832031 13.628906 C 21.796875 8.664062 24.941406 0.59375 24.972656 0.511719 C 25.027344 0.375 24.996094 0.214844 24.890625 0.109375 C 24.785156 0.00390625 24.625 -0.0273438 24.488281 0.0234375 C 24.40625 0.0546875 16.332031 3.203125 11.371094 8.167969 C 10.5625 8.976562 9.867188 9.730469 9.28125 10.429688 L 8.324219 10.214844 C 8.988281 8.539062 9.308594 7.152344 9.328125 7.054688 C 9.363281 6.910156 9.304688 6.761719 9.1875 6.671875 C 9.066406 6.582031 8.90625 6.570312 8.777344 6.644531 C 8.628906 6.730469 5.113281 8.730469 3.089844 11.453125 C 2.050781 12.847656 1.503906 13.917969 1.417969 14.722656 C 1.402344 14.855469 1.457031 14.984375 1.566406 15.066406 L 3.339844 16.382812 C 3.40625 16.433594 3.484375 16.457031 3.5625 16.457031 C 3.613281 16.457031 3.664062 16.449219 3.710938 16.429688 C 4.285156 16.183594 4.933594 15.632812 5.675781 14.753906 L 6.890625 15.027344 C 6.886719 15.113281 6.882812 15.199219 6.886719 15.28125 L 5.558594 16.609375 C 5.410156 16.757812 5.410156 16.996094 5.558594 17.144531 L 7.855469 19.441406 C 7.929688 19.515625 8.027344 19.550781 8.121094 19.550781 C 8.21875 19.550781 8.316406 19.515625 8.390625 19.441406 L 9.71875 18.113281 C 9.753906 18.113281 9.789062 18.113281 9.820312 18.113281 C 9.871094 18.113281 9.921875 18.113281 9.96875 18.109375 L 10.246094 19.324219 C 9.367188 20.066406 8.816406 20.714844 8.570312 21.289062 C 8.519531 21.410156 8.535156 21.554688 8.617188 21.660156 L 9.933594 23.433594 C 10.007812 23.53125 10.121094 23.585938 10.238281 23.585938 C 10.25 23.585938 10.265625 23.585938 10.277344 23.582031 C 11.082031 23.496094 12.152344 22.949219 13.546875 21.910156 C 16.269531 19.886719 18.269531 16.371094 18.355469 16.222656 C 18.429688 16.09375 18.417969 15.933594 18.328125 15.8125 C 18.238281 15.695312 18.089844 15.636719 17.945312 15.671875 C 17.847656 15.691406 16.460938 16.011719 14.785156 16.675781 L 14.570312 15.71875 C 15.269531 15.136719 16.019531 14.441406 16.832031 13.628906 Z M 20.785156 7.183594 C 19.605469 6.410156 18.589844 5.394531 17.816406 4.214844 C 20.355469 2.679688 22.71875 1.59375 23.925781 1.074219 C 23.40625 2.277344 22.320312 4.644531 20.785156 7.183594 Z M 11.902344 8.703125 C 13.460938 7.140625 15.339844 5.761719 17.175781 4.609375 C 18.011719 5.890625 19.109375 6.988281 20.390625 7.824219 C 19.238281 9.660156 17.859375 11.535156 16.296875 13.097656 C 13.429688 15.964844 11.3125 17.359375 9.820312 17.359375 C 9.242188 17.359375 8.761719 17.148438 8.304688 16.695312 C 7.617188 16.007812 7.46875 15.226562 7.820312 14.167969 C 8.285156 12.785156 9.65625 10.945312 11.902344 8.703125 Z M 3.605469 15.640625 L 2.199219 14.597656 C 2.34375 13.945312 2.84375 13.042969 3.691406 11.902344 C 5.054688 10.070312 7.203125 8.539062 8.351562 7.789062 C 7.96875 9.109375 7.117188 11.605469 5.757812 13.4375 C 4.910156 14.578125 4.1875 15.316406 3.605469 15.640625 Z M 6.199219 14.101562 C 6.253906 14.03125 6.304688 13.960938 6.359375 13.886719 C 7.039062 12.972656 7.59375 11.921875 8.03125 10.921875 L 8.757812 11.085938 C 7.929688 12.15625 7.386719 13.097656 7.109375 13.929688 C 7.066406 14.050781 7.035156 14.167969 7.003906 14.28125 Z M 8.121094 18.640625 L 6.359375 16.878906 L 7.066406 16.171875 C 7.210938 16.550781 7.445312 16.902344 7.773438 17.226562 C 8.101562 17.554688 8.449219 17.789062 8.828125 17.933594 Z M 13.097656 21.308594 C 11.957031 22.15625 11.054688 22.65625 10.402344 22.800781 L 9.359375 21.394531 C 9.683594 20.8125 10.421875 20.089844 11.5625 19.242188 C 13.394531 17.878906 15.890625 17.03125 17.210938 16.648438 C 16.460938 17.796875 14.929688 19.945312 13.097656 21.308594 Z M 14.078125 16.96875 C 13.078125 17.40625 12.027344 17.960938 11.113281 18.640625 C 11.039062 18.695312 10.96875 18.746094 10.898438 18.800781 L 10.71875 17.996094 C 11.640625 17.765625 12.691406 17.191406 13.914062 16.246094 Z M 14.078125 16.96875 "/>
<path style=" stroke:none;fill-rule:nonzero;fill:rgb(0%,0%,0%);fill-opacity:1;" d="M 16.226562 10.667969 C 16.714844 10.667969 17.175781 10.476562 17.523438 10.128906 C 17.871094 9.78125 18.0625 9.320312 18.0625 8.828125 C 18.0625 8.339844 17.871094 7.878906 17.523438 7.53125 C 17.175781 7.183594 16.714844 6.992188 16.226562 6.992188 C 15.734375 6.992188 15.273438 7.183594 14.925781 7.53125 C 14.578125 7.878906 14.390625 8.339844 14.390625 8.828125 C 14.390625 9.320312 14.578125 9.78125 14.925781 10.128906 C 15.273438 10.476562 15.734375 10.667969 16.226562 10.667969 Z M 15.460938 8.0625 C 15.664062 7.859375 15.9375 7.746094 16.226562 7.746094 C 16.515625 7.746094 16.785156 7.859375 16.992188 8.0625 C 17.195312 8.269531 17.308594 8.539062 17.308594 8.828125 C 17.308594 9.117188 17.195312 9.390625 16.992188 9.59375 C 16.785156 9.800781 16.515625 9.914062 16.226562 9.914062 C 15.9375 9.914062 15.664062 9.800781 15.460938 9.59375 C 15.253906 9.390625 15.140625 9.117188 15.140625 8.828125 C 15.140625 8.539062 15.253906 8.269531 15.460938 8.0625 Z M 15.460938 8.0625 "/>
<path style=" stroke:none;fill-rule:nonzero;fill:rgb(0%,0%,0%);fill-opacity:1;" d="M 3.34375 18.3125 C 1.5 18.3125 0 19.8125 0 21.65625 L 0 24.625 C 0 24.832031 0.167969 25 0.375 25 L 3.34375 25 C 5.1875 25 6.6875 23.5 6.6875 21.65625 C 6.6875 19.8125 5.1875 18.3125 3.34375 18.3125 Z M 4.347656 19.507812 C 4.980469 19.507812 5.492188 20.023438 5.492188 20.652344 C 5.492188 21.28125 4.980469 21.796875 4.347656 21.796875 L 3.203125 21.796875 L 3.203125 20.652344 C 3.203125 20.023438 3.71875 19.507812 4.347656 19.507812 Z M 3.34375 24.246094 L 0.753906 24.246094 L 0.753906 21.65625 C 0.753906 20.238281 1.894531 19.085938 3.308594 19.066406 C 2.792969 19.40625 2.449219 19.988281 2.449219 20.652344 L 2.449219 22.171875 C 2.449219 22.382812 2.617188 22.550781 2.828125 22.550781 L 4.347656 22.550781 C 5.011719 22.550781 5.59375 22.207031 5.933594 21.691406 C 5.914062 23.105469 4.761719 24.246094 3.34375 24.246094 Z M 3.34375 24.246094 "/>
<path style=" stroke:none;fill-rule:nonzero;fill:rgb(0%,0%,0%);fill-opacity:1;" d="M 20.316406 6.496094 C 20.382812 6.542969 20.457031 6.566406 20.53125 6.566406 C 20.652344 6.566406 20.765625 6.511719 20.839844 6.40625 C 21.058594 6.101562 21.476562 5.363281 22.082031 4.21875 C 22.179688 4.035156 22.109375 3.804688 21.925781 3.707031 C 21.742188 3.609375 21.511719 3.679688 21.414062 3.867188 C 20.679688 5.257812 20.363281 5.78125 20.226562 5.972656 C 20.105469 6.140625 20.144531 6.378906 20.316406 6.496094 Z M 20.316406 6.496094 "/>
<path style=" stroke:none;fill-rule:nonzero;fill:rgb(0%,0%,0%);fill-opacity:1;" d="M 22.0625 3.441406 C 22.117188 3.472656 22.175781 3.484375 22.234375 3.484375 C 22.371094 3.484375 22.503906 3.410156 22.570312 3.28125 C 22.78125 2.871094 22.921875 2.59375 22.921875 2.59375 C 23.015625 2.410156 22.941406 2.183594 22.757812 2.089844 C 22.570312 1.992188 22.34375 2.066406 22.25 2.253906 C 22.25 2.253906 22.109375 2.53125 21.902344 2.933594 C 21.804688 3.121094 21.878906 3.347656 22.0625 3.441406 Z M 22.0625 3.441406 "/>
</g>
</svg>
