<?xml version="1.0" encoding="UTF-8"?>
<svg xmlns="http://www.w3.org/2000/svg" xmlns:xlink="http://www.w3.org/1999/xlink" width="25px" height="25px" viewBox="0 0 25 25" version="1.1">
<g id="surface1">
<path style=" stroke:none;fill-rule:nonzero;fill:rgb(94.901961%,36.078431%,0%);fill-opacity:1;" d="M 23.128906 11.140625 C 22.980469 8.480469 21.695312 4.992188 19.167969 2.90625 C 19.242188 2.867188 19.320312 2.828125 19.390625 2.789062 C 19.511719 2.726562 19.59375 2.609375 19.605469 2.476562 C 19.617188 2.34375 19.5625 2.214844 19.457031 2.132812 C 18.96875 1.742188 18.4375 1.410156 17.871094 1.136719 C 13.472656 -0.9375 8.585938 0.101562 5.675781 1.90625 C 5.652344 1.917969 5.632812 1.929688 5.613281 1.945312 C 4.984375 2.328125 4.414062 2.796875 3.917969 3.34375 C 3.910156 3.355469 3.902344 3.367188 3.898438 3.382812 C 3.882812 3.402344 3.867188 3.425781 3.859375 3.453125 C 3.855469 3.460938 3.847656 3.46875 3.84375 3.476562 C 3.648438 4.066406 3.445312 4.601562 3.253906 5.117188 C 2.945312 5.867188 2.699219 6.640625 2.511719 7.429688 C 2.308594 8.5 2.214844 9.59375 2.226562 10.683594 C 2.257812 12.96875 2.40625 15.199219 3.253906 16.066406 C 3.632812 16.417969 4.164062 16.554688 4.667969 16.425781 C 4.84375 16.398438 5.023438 16.390625 5.203125 16.402344 C 5.726562 16.523438 6.199219 16.820312 6.535156 17.246094 C 6.847656 17.5625 7.152344 17.90625 7.449219 18.234375 C 8 18.875 8.59375 19.476562 9.226562 20.035156 C 12.230469 22.566406 15.808594 23.832031 19.214844 24.914062 C 20.144531 25.207031 21.144531 24.730469 21.496094 23.820312 C 21.59375 23.570312 21.691406 23.3125 21.789062 23.046875 C 21.988281 22.515625 21.882812 21.917969 21.515625 21.488281 C 22.777344 17.765625 23.308594 14.375 23.128906 11.140625 Z M 22.347656 11.183594 C 22.519531 14.253906 22.023438 17.476562 20.84375 21.019531 C 20.03125 20.695312 19.234375 20.328125 18.460938 19.910156 L 18.402344 19.367188 C 18.933594 19.699219 19.476562 20.015625 20.019531 20.296875 C 20.144531 20.367188 20.296875 20.363281 20.417969 20.285156 C 20.539062 20.210938 20.605469 20.078125 20.597656 19.933594 C 20.589844 19.792969 20.507812 19.667969 20.378906 19.605469 C 16.789062 17.742188 13.375 14.597656 11.46875 11.394531 C 11 10.617188 11.183594 9.609375 11.898438 9.046875 C 14.003906 7.445312 16.203125 5.972656 18.480469 4.628906 C 18.664062 4.519531 18.722656 4.28125 18.617188 4.097656 C 18.507812 3.914062 18.269531 3.851562 18.085938 3.957031 C 15.78125 5.316406 13.554688 6.808594 11.425781 8.429688 C 10.519531 9.136719 10.191406 10.359375 10.625 11.425781 L 10.078125 11.359375 C 9.902344 11.023438 9.742188 10.683594 9.59375 10.34375 C 9.414062 9.929688 9.53125 9.445312 9.875 9.152344 C 12.515625 6.917969 15.371094 4.960938 18.40625 3.304688 C 20.914062 5.203125 22.207031 8.6875 22.347656 11.1875 Z M 5.664062 2.863281 C 6.082031 4.179688 6.632812 5.449219 7.304688 6.65625 C 7.503906 7 7.84375 7.242188 8.234375 7.3125 C 8.632812 7.386719 9.042969 7.277344 9.359375 7.019531 C 10.21875 6.316406 11.21875 5.578125 12.417969 4.773438 C 12.769531 4.539062 12.988281 4.152344 13.007812 3.726562 C 13.027344 3.300781 12.84375 2.890625 12.507812 2.621094 C 11.863281 2.101562 11.132812 1.695312 10.347656 1.421875 C 10.144531 1.351562 9.921875 1.457031 9.847656 1.660156 C 9.777344 1.863281 9.882812 2.085938 10.085938 2.160156 C 10.785156 2.402344 11.4375 2.761719 12.015625 3.226562 C 12.15625 3.339844 12.234375 3.511719 12.226562 3.691406 C 12.21875 3.867188 12.128906 4.027344 11.984375 4.125 C 10.761719 4.945312 9.742188 5.695312 8.863281 6.414062 C 8.730469 6.527344 8.550781 6.574219 8.375 6.542969 C 8.210938 6.515625 8.066406 6.414062 7.984375 6.269531 C 7.308594 5.050781 6.757812 3.765625 6.347656 2.4375 C 9 0.921875 13.445312 -0.0859375 17.539062 1.84375 C 17.863281 2 18.179688 2.179688 18.476562 2.382812 C 15.230469 4.109375 12.179688 6.175781 9.375 8.554688 C 8.765625 9.070312 8.566406 9.925781 8.882812 10.65625 C 9.0625 11.074219 9.265625 11.492188 9.484375 11.90625 C 9.546875 12.019531 9.65625 12.097656 9.785156 12.113281 L 11.03125 12.261719 C 12.667969 14.945312 14.90625 17.214844 17.570312 18.894531 L 17.710938 20.199219 C 17.726562 20.320312 17.800781 20.433594 17.90625 20.492188 C 18.78125 20.980469 19.683594 21.40625 20.613281 21.769531 C 20.964844 21.90625 21.167969 22.277344 21.09375 22.648438 C 15.234375 20.628906 10.957031 15.507812 8.382812 11.515625 C 6.820312 9.078125 5.566406 6.449219 4.65625 3.699219 C 4.964844 3.386719 5.300781 3.105469 5.664062 2.863281 Z M 19.449219 24.167969 C 16.117188 23.113281 12.621094 21.878906 9.726562 19.441406 C 9.121094 18.90625 8.554688 18.328125 8.027344 17.714844 C 7.726562 17.378906 7.414062 17.03125 7.089844 16.699219 C 6.585938 16.183594 6.015625 15.695312 5.273438 15.625 C 5.203125 15.617188 5.132812 15.617188 5.066406 15.617188 C 4.902344 15.617188 4.738281 15.628906 4.574219 15.652344 C 4.175781 15.695312 3.992188 15.710938 3.808594 15.523438 C 3.066406 14.757812 3.023438 11.789062 3.007812 10.675781 C 2.996094 9.632812 3.085938 8.59375 3.28125 7.574219 C 3.457031 6.828125 3.695312 6.097656 3.984375 5.390625 C 4.054688 5.203125 4.128906 5 4.207031 4.792969 C 5.109375 7.300781 6.289062 9.699219 7.726562 11.941406 C 10.367188 16.03125 14.765625 21.289062 20.824219 23.382812 C 20.804688 23.433594 20.785156 23.488281 20.765625 23.539062 C 20.5625 24.0625 19.984375 24.335938 19.449219 24.167969 Z M 24.609375 1.953125 C 24.609375 2.167969 24.433594 2.34375 24.21875 2.34375 L 23.4375 2.34375 L 23.4375 3.125 C 23.4375 3.339844 23.261719 3.515625 23.046875 3.515625 C 22.832031 3.515625 22.65625 3.339844 22.65625 3.125 L 22.65625 2.34375 L 21.875 2.34375 C 21.660156 2.34375 21.484375 2.167969 21.484375 1.953125 C 21.484375 1.738281 21.660156 1.5625 21.875 1.5625 L 22.65625 1.5625 L 22.65625 0.78125 C 22.65625 0.566406 22.832031 0.390625 23.046875 0.390625 C 23.261719 0.390625 23.4375 0.566406 23.4375 0.78125 L 23.4375 1.5625 L 24.21875 1.5625 C 24.433594 1.5625 24.609375 1.738281 24.609375 1.953125 Z M 7.421875 23.046875 C 7.421875 23.261719 7.246094 23.4375 7.03125 23.4375 L 6.25 23.4375 L 6.25 24.21875 C 6.25 24.433594 6.074219 24.609375 5.859375 24.609375 C 5.644531 24.609375 5.46875 24.433594 5.46875 24.21875 L 5.46875 23.4375 L 4.6875 23.4375 C 4.472656 23.4375 4.296875 23.261719 4.296875 23.046875 C 4.296875 22.832031 4.472656 22.65625 4.6875 22.65625 L 5.46875 22.65625 L 5.46875 21.875 C 5.46875 21.660156 5.644531 21.484375 5.859375 21.484375 C 6.074219 21.484375 6.25 21.660156 6.25 21.875 L 6.25 22.65625 L 7.03125 22.65625 C 7.246094 22.65625 7.421875 22.832031 7.421875 23.046875 Z M 3.125 19.921875 C 3.125 20.136719 2.949219 20.3125 2.734375 20.3125 C 2.519531 20.3125 2.34375 20.136719 2.34375 19.921875 C 2.34375 19.707031 2.519531 19.53125 2.734375 19.53125 C 2.949219 19.53125 3.125 19.707031 3.125 19.921875 Z M 1.171875 22.265625 C 1.171875 22.480469 0.996094 22.65625 0.78125 22.65625 C 0.566406 22.65625 0.390625 22.480469 0.390625 22.265625 C 0.390625 22.050781 0.566406 21.875 0.78125 21.875 C 0.996094 21.875 1.171875 22.050781 1.171875 22.265625 Z M 24.21875 5.859375 C 24.21875 6.074219 24.042969 6.25 23.828125 6.25 C 23.613281 6.25 23.4375 6.074219 23.4375 5.859375 C 23.4375 5.644531 23.613281 5.46875 23.828125 5.46875 C 24.042969 5.46875 24.21875 5.644531 24.21875 5.859375 Z M 1.5625 3.515625 C 1.5625 3.730469 1.386719 3.90625 1.171875 3.90625 C 0.957031 3.90625 0.78125 3.730469 0.78125 3.515625 C 0.78125 3.300781 0.957031 3.125 1.171875 3.125 C 1.386719 3.125 1.5625 3.300781 1.5625 3.515625 Z M 23.828125 21.09375 C 23.828125 21.308594 23.652344 21.484375 23.4375 21.484375 C 23.222656 21.484375 23.046875 21.308594 23.046875 21.09375 C 23.046875 20.878906 23.222656 20.703125 23.4375 20.703125 C 23.652344 20.703125 23.828125 20.878906 23.828125 21.09375 Z M 1.953125 1.953125 C 1.738281 1.953125 1.5625 1.777344 1.5625 1.5625 C 1.5625 1.347656 1.738281 1.171875 1.953125 1.171875 C 2.167969 1.171875 2.34375 1.347656 2.34375 1.5625 C 2.34375 1.777344 2.167969 1.953125 1.953125 1.953125 Z M 1.953125 1.953125 "/>
</g>
</svg>
