<?xml version="1.0" encoding="UTF-8"?>
<svg xmlns="http://www.w3.org/2000/svg" xmlns:xlink="http://www.w3.org/1999/xlink" width="25px" height="25px" viewBox="0 0 25 25" version="1.1">
<g id="surface1">
<path style=" stroke:none;fill-rule:nonzero;fill:rgb(0%,0%,0%);fill-opacity:1;" d="M 13.867188 12.089844 C 14.199219 12.089844 14.453125 11.835938 14.453125 11.503906 L 14.453125 9.550781 C 14.453125 9.21875 14.199219 8.964844 13.867188 8.964844 L 13.085938 8.964844 C 12.753906 8.964844 12.5 9.21875 12.5 9.550781 L 12.5 9.941406 C 12.5 10.273438 12.246094 10.527344 11.914062 10.527344 L 11.132812 10.527344 C 10.800781 10.527344 10.546875 10.78125 10.546875 11.113281 L 10.546875 11.503906 C 10.546875 11.835938 10.800781 12.089844 11.132812 12.089844 Z M 13.867188 12.089844 "/>
<path style=" stroke:none;fill-rule:nonzero;fill:rgb(0%,0%,0%);fill-opacity:1;" d="M 4.296875 24.804688 L 5.078125 24.804688 C 5.195312 24.804688 5.3125 24.765625 5.410156 24.707031 L 9.160156 22.070312 L 10.15625 22.070312 L 10.15625 22.65625 C 10.15625 22.988281 10.410156 23.242188 10.742188 23.242188 C 11.074219 23.242188 11.328125 22.988281 11.328125 22.65625 L 11.328125 22.070312 L 11.914062 22.070312 L 11.914062 22.65625 C 11.914062 22.988281 12.167969 23.242188 12.5 23.242188 C 12.832031 23.242188 13.085938 22.988281 13.085938 22.65625 L 13.085938 22.070312 L 13.671875 22.070312 L 13.671875 22.65625 C 13.671875 22.988281 13.925781 23.242188 14.257812 23.242188 C 14.589844 23.242188 14.84375 22.988281 14.84375 22.65625 L 14.84375 22.070312 L 15.839844 22.070312 L 19.589844 24.707031 C 19.6875 24.785156 19.804688 24.804688 19.921875 24.804688 L 20.703125 24.804688 C 20.898438 24.804688 21.09375 24.707031 21.191406 24.53125 C 21.289062 24.355469 21.308594 24.140625 21.210938 23.964844 L 16.601562 14.511719 L 16.601562 9.53125 C 16.601562 7.207031 16.074219 4.882812 15.117188 2.96875 C 14.453125 1.640625 13.417969 0.234375 12.5 0.234375 C 11.09375 0.234375 8.398438 4.160156 8.398438 9.53125 C 8.398438 9.863281 8.652344 10.117188 8.984375 10.117188 C 9.316406 10.117188 9.570312 9.863281 9.570312 9.53125 C 9.570312 4.746094 11.875 1.679688 12.5 1.40625 C 13.125 1.679688 15.429688 4.746094 15.429688 9.53125 L 15.429688 14.648438 C 15.429688 14.746094 15.449219 14.824219 15.488281 14.902344 L 19.589844 23.261719 L 16.210938 20.898438 L 16.210938 19.335938 C 16.210938 19.003906 15.957031 18.75 15.625 18.75 C 15.292969 18.75 15.039062 19.003906 15.039062 19.335938 L 15.039062 20.898438 L 9.960938 20.898438 L 9.960938 19.53125 C 9.960938 19.199219 9.707031 18.945312 9.375 18.945312 C 9.042969 18.945312 8.789062 19.199219 8.789062 19.53125 L 8.789062 20.898438 L 5.410156 23.261719 L 9.511719 14.902344 C 9.648438 14.609375 9.53125 14.257812 9.238281 14.121094 C 8.945312 13.984375 8.59375 14.101562 8.457031 14.394531 L 3.769531 23.964844 C 3.671875 24.140625 3.691406 24.355469 3.789062 24.53125 C 3.90625 24.707031 4.101562 24.804688 4.296875 24.804688 Z M 4.296875 24.804688 "/>
</g>
</svg>
